<svg
  xmlns="http://www.w3.org/2000/svg"
  width="200"
  height="150"
  viewBox="0 0 200 150"
  fill="#000000" 
>
  <!-- Cow Body -->
  <ellipse cx="100" cy="80" rx="80" ry="50" fill="#F5DEB3" />

  <!-- Cow Spots -->
  <circle cx="75" cy="60" r="10" fill="#000" />
  <circle cx="90" cy="70" r="10" fill="#000" />
  <circle cx="105" cy="65" r="10" fill="#000" />
  <circle cx="120" cy="75" r="10" fill="#000" />
  <circle cx="130" cy="62" r="10" fill="#000" />
  <circle cx="140" cy="70" r="10" fill="#000" />

  <!-- Cow Head -->
  <circle cx="80" cy="45" r="30" fill="#F5DEB3" />

  <!-- Cow Eyes -->
  <circle cx="75" cy="40" r="5" fill="#000" />
  <circle cx="85" cy="40" r="5" fill="#000" />

  <!-- Cow Nose -->
  <circle cx="80" cy="50" r="3" fill="#000" />

  <!-- Cow Mouth -->
  <path
    d="M80 55 Q85 60, 90 55"
    fill="none"
    stroke="#000"
    stroke-width="2"
  />

  <!-- Cow Ears -->
  <polygon points="60,35 60,45 70,35" fill="#F5DEB3" />
  <polygon points="120,35 120,45 110,35" fill="#F5DEB3" />

  <!-- Cow Horns -->
  <path d="M63 32 L63 20" stroke="#000" stroke-width="2" />
  <path d="M117 32 L117 20" stroke="#000" stroke-width="2" />
</svg>
